<svg xmlns="http://www.w3.org/2000/svg" viewBox="0 0 1019 200">
  <g fill="none" fill-rule="evenodd">
    <path fill="#004996" d="M484.72 93.34c1.78-31-16-58.75-49.44-58.75-32.6 0-50.56 25.49-50.56 56.32 0 29.93 20 53.65 51 53.65 21.29 0 38.14-10.64 48.12-29.26l-15.08-8.65c-6.88 12.42-16.63 21.51-31.71 21.51-20.18 0-33.92-15.53-34.15-34.82h81.82zm-80.93-15.07c2.22-15.08 16.41-27.28 31.71-27.28 15.52 0 28.16 12.2 30.6 27.28h-62.31z"/>
    <path fill="#004996" d="M133.76 37.84h-29.6v103.82h29.6V37.84zM196.33 37.87h-29.6v103.81h29.6V90.3c0-12.47.21-32.14 17.76-32.14 16.71 0 16.07 16.07 16.07 28.55v55h29.61V78.25c0-24.11-13.88-44.12-36-43.75-11.68.2-20.92 3.58-27.06 12.88h-.42v-9.51h.04zM294.9 37.47h-20.17l51.22 111.09 50.99-111.09h-19.95l-31.04 70.07-31.05-70.07zM526.83 37.47H509.1v104.21h17.73V92.24c0-18.63 1.56-41.25 26-41.25 20.62 0 21.95 15.08 21.95 31.93v58.76h17.74V79.87c0-24.39-6.66-45.23-35.48-45.23-12.86 0-22.4 5.54-29.71 15.52h-.45V37.47h-.05zM644.8 53.88h18.63V37.47H644.8V0h-17.74v37.47H616.2v16.41h10.86v87.81h17.74V53.88z"/>
    <path fill="#004996" d="M719.72 36.98c15.559 0 30.4732 6.9768 39.1692 19.5588l.3008.4412h.45V39.24h9.99v102.41h-10v-18.4h-.44c-7.51 13.08-23.92 20.62-39 20.62-31 0-50.58-24.17-50.58-54.11 0-29.94 19.29-52.78 50.11-52.78zm-.42 9.36h-.02c-23.5 0-39.68 21.28-39.68 43.46 0 23.5 15.52 44.79 40.35 44.79 26.16 0 40.35-21.29 40.35-45.9 0-23.73-16.16-42.35-41-42.35zm125.72 0c24.83 0 41 18.62 41 42.35 0 24.61-14.19 45.9-40.36 45.9-24.83 0-40.35-21.29-40.35-44.79 0-22.18 16.18-43.46 39.69-43.46h.02zm50.33-7.1h-10v17.74h-.44c-9.54-12.86-22-20-38.58-20-29.94 0-51 23.73-51 53.22 0 28.6 20 53.66 49.67 53.66 15.6797-.139 30.4134-7.5226 39.91-20h.44v12.64c0 13.75-1.11 27-9.09 38.8-7.54 10.87-20 15.3-32.82 15.3-20.62 0-38.58-13.3-39.69-34.59h-10c1.55 28.16 23.72 43.91 50.55 43.91 16.19 0 31.26-6.66 40.8-19.74 9.76-13.52 10.2-27.71 10.2-43.46V39.24h.05zm123.09 53.11c.22-29.49-18.19-54.33-49.23-54.33-29.93 0-49.67 24.62-49.67 53.22 0 29 19.29 53.66 49.67 53.66 20.18 0 36.59-10 45.9-27.72l-8.43-4.87c-7.31 13.74-20.17 23.28-36.14 23.28-23.72 0-41.68-17.3-41-43.24h88.9zm-88.92-9.31c1.78-19.29 19.07-35.7 39.91-35.7 21.07 0 36.59 16.85 39 35.7h-78.91z"/>
    <path fill="#C02D2F" d="M0 59.06c0-11.8355 9.5945-21.43 21.43-21.43s21.43 9.5945 21.43 21.43-9.5945 21.43-21.43 21.43C9.5968 80.4845.0055 70.8932 0 59.06zm0 68.71c0-11.8355 9.5945-21.43 21.43-21.43s21.43 9.5945 21.43 21.43-9.5945 21.43-21.43 21.43S0 139.6055 0 127.77z"/>
  </g>
</svg>
